<mxfile host="app.diagrams.net" modified="2023-09-07T06:44:13.160Z" agent="Mozilla/5.0 (Windows NT 10.0; Win64; x64) AppleWebKit/537.36 (KHTML, like Gecko) Chrome/116.0.0.0 Safari/537.36" etag="IZfwzCr-Py2CMUnf2xwE" version="21.7.2" type="device">
  <diagram id="C5RBs43oDa-KdzZeNtuy" name="Page-1">
    <mxGraphModel dx="3474" dy="2609" grid="1" gridSize="10" guides="1" tooltips="1" connect="1" arrows="1" fold="1" page="1" pageScale="1" pageWidth="827" pageHeight="1169" math="0" shadow="0">
      <root>
        <mxCell id="WIyWlLk6GJQsqaUBKTNV-0" />
        <mxCell id="WIyWlLk6GJQsqaUBKTNV-1" parent="WIyWlLk6GJQsqaUBKTNV-0" />
        <mxCell id="7RdI7eUV66DGFy7NkIfL-0" value="" style="rounded=0;whiteSpace=wrap;html=1;" parent="WIyWlLk6GJQsqaUBKTNV-1" vertex="1">
          <mxGeometry x="-310" y="50" width="1080" height="720" as="geometry" />
        </mxCell>
        <mxCell id="7RdI7eUV66DGFy7NkIfL-1" value="" style="rounded=0;whiteSpace=wrap;html=1;" parent="WIyWlLk6GJQsqaUBKTNV-1" vertex="1">
          <mxGeometry x="-265" y="660" width="990" height="80" as="geometry" />
        </mxCell>
        <mxCell id="7RdI7eUV66DGFy7NkIfL-2" value="&lt;font style=&quot;font-size: 40px;&quot;&gt;Корпус&lt;/font&gt;" style="text;html=1;strokeColor=none;fillColor=none;align=center;verticalAlign=middle;whiteSpace=wrap;rounded=0;" parent="WIyWlLk6GJQsqaUBKTNV-1" vertex="1">
          <mxGeometry x="65" y="660" width="330" height="80" as="geometry" />
        </mxCell>
        <mxCell id="7RdI7eUV66DGFy7NkIfL-5" value="" style="rounded=0;whiteSpace=wrap;html=1;" parent="WIyWlLk6GJQsqaUBKTNV-1" vertex="1">
          <mxGeometry x="280" y="80" width="450" height="60" as="geometry" />
        </mxCell>
        <mxCell id="7RdI7eUV66DGFy7NkIfL-6" value="&lt;font style=&quot;font-size: 30px;&quot;&gt;Сетка&lt;/font&gt;" style="text;html=1;strokeColor=none;fillColor=none;align=center;verticalAlign=middle;whiteSpace=wrap;rounded=0;" parent="WIyWlLk6GJQsqaUBKTNV-1" vertex="1">
          <mxGeometry x="440" y="85" width="130" height="50" as="geometry" />
        </mxCell>
        <mxCell id="7RdI7eUV66DGFy7NkIfL-7" value="" style="rounded=0;whiteSpace=wrap;html=1;" parent="WIyWlLk6GJQsqaUBKTNV-1" vertex="1">
          <mxGeometry x="170" y="170" width="560" height="400" as="geometry" />
        </mxCell>
        <mxCell id="7RdI7eUV66DGFy7NkIfL-8" value="&lt;font style=&quot;font-size: 25px;&quot;&gt;Подсистема Динамик&lt;/font&gt;" style="text;html=1;strokeColor=none;fillColor=none;align=center;verticalAlign=middle;whiteSpace=wrap;rounded=0;" parent="WIyWlLk6GJQsqaUBKTNV-1" vertex="1">
          <mxGeometry x="450" y="180" width="266" height="40" as="geometry" />
        </mxCell>
        <mxCell id="7RdI7eUV66DGFy7NkIfL-9" value="" style="rounded=0;whiteSpace=wrap;html=1;" parent="WIyWlLk6GJQsqaUBKTNV-1" vertex="1">
          <mxGeometry x="204" y="230" width="196" height="130" as="geometry" />
        </mxCell>
        <mxCell id="7RdI7eUV66DGFy7NkIfL-10" value="" style="rounded=0;whiteSpace=wrap;html=1;" parent="WIyWlLk6GJQsqaUBKTNV-1" vertex="1">
          <mxGeometry x="490" y="230" width="206" height="130" as="geometry" />
        </mxCell>
        <mxCell id="7RdI7eUV66DGFy7NkIfL-11" value="" style="rounded=0;whiteSpace=wrap;html=1;" parent="WIyWlLk6GJQsqaUBKTNV-1" vertex="1">
          <mxGeometry x="490" y="420" width="206" height="130" as="geometry" />
        </mxCell>
        <mxCell id="7RdI7eUV66DGFy7NkIfL-12" value="" style="rounded=0;whiteSpace=wrap;html=1;" parent="WIyWlLk6GJQsqaUBKTNV-1" vertex="1">
          <mxGeometry x="204" y="420" width="196" height="130" as="geometry" />
        </mxCell>
        <mxCell id="7RdI7eUV66DGFy7NkIfL-13" value="&lt;font style=&quot;font-size: 30px;&quot;&gt;Диффузор&lt;/font&gt;" style="text;html=1;strokeColor=none;fillColor=none;align=center;verticalAlign=middle;whiteSpace=wrap;rounded=0;" parent="WIyWlLk6GJQsqaUBKTNV-1" vertex="1">
          <mxGeometry x="225.5" y="275" width="153" height="40" as="geometry" />
        </mxCell>
        <mxCell id="7RdI7eUV66DGFy7NkIfL-14" value="&lt;font style=&quot;font-size: 30px;&quot;&gt;Подвес&lt;/font&gt;" style="text;html=1;strokeColor=none;fillColor=none;align=center;verticalAlign=middle;whiteSpace=wrap;rounded=0;" parent="WIyWlLk6GJQsqaUBKTNV-1" vertex="1">
          <mxGeometry x="523" y="280" width="140" height="30" as="geometry" />
        </mxCell>
        <mxCell id="7RdI7eUV66DGFy7NkIfL-15" value="&lt;font style=&quot;font-size: 30px;&quot;&gt;Магнит&lt;/font&gt;" style="text;html=1;strokeColor=none;fillColor=none;align=center;verticalAlign=middle;whiteSpace=wrap;rounded=0;" parent="WIyWlLk6GJQsqaUBKTNV-1" vertex="1">
          <mxGeometry x="232" y="470" width="140" height="30" as="geometry" />
        </mxCell>
        <mxCell id="7RdI7eUV66DGFy7NkIfL-16" value="&lt;font style=&quot;font-size: 30px;&quot;&gt;Катушка&lt;/font&gt;" style="text;html=1;strokeColor=none;fillColor=none;align=center;verticalAlign=middle;whiteSpace=wrap;rounded=0;" parent="WIyWlLk6GJQsqaUBKTNV-1" vertex="1">
          <mxGeometry x="539.5" y="470" width="107" height="30" as="geometry" />
        </mxCell>
        <mxCell id="7RdI7eUV66DGFy7NkIfL-19" value="" style="rounded=0;whiteSpace=wrap;html=1;" parent="WIyWlLk6GJQsqaUBKTNV-1" vertex="1">
          <mxGeometry x="-50" y="80" width="170" height="150" as="geometry" />
        </mxCell>
        <mxCell id="7RdI7eUV66DGFy7NkIfL-20" value="" style="rounded=0;whiteSpace=wrap;html=1;" parent="WIyWlLk6GJQsqaUBKTNV-1" vertex="1">
          <mxGeometry x="-270" y="470" width="390" height="150" as="geometry" />
        </mxCell>
        <mxCell id="7RdI7eUV66DGFy7NkIfL-22" value="&lt;span style=&quot;font-size: 25px;&quot;&gt;Регулятор&lt;br&gt;громкости&lt;br&gt;&lt;/span&gt;" style="text;html=1;strokeColor=none;fillColor=none;align=center;verticalAlign=middle;whiteSpace=wrap;rounded=0;" parent="WIyWlLk6GJQsqaUBKTNV-1" vertex="1">
          <mxGeometry x="-25" y="120" width="120" height="70" as="geometry" />
        </mxCell>
        <mxCell id="7RdI7eUV66DGFy7NkIfL-23" value="&lt;font style=&quot;font-size: 30px;&quot;&gt;Разъёмы&lt;/font&gt;" style="text;html=1;strokeColor=none;fillColor=none;align=center;verticalAlign=middle;whiteSpace=wrap;rounded=0;" parent="WIyWlLk6GJQsqaUBKTNV-1" vertex="1">
          <mxGeometry x="-245" y="510" width="335" height="70" as="geometry" />
        </mxCell>
        <mxCell id="7RdI7eUV66DGFy7NkIfL-25" value="" style="ellipse;whiteSpace=wrap;html=1;" parent="WIyWlLk6GJQsqaUBKTNV-1" vertex="1">
          <mxGeometry x="-680" y="240" width="205" height="110" as="geometry" />
        </mxCell>
        <mxCell id="7RdI7eUV66DGFy7NkIfL-26" value="" style="ellipse;whiteSpace=wrap;html=1;" parent="WIyWlLk6GJQsqaUBKTNV-1" vertex="1">
          <mxGeometry x="-287.5" y="-200" width="205" height="110" as="geometry" />
        </mxCell>
        <mxCell id="7RdI7eUV66DGFy7NkIfL-28" value="&lt;font style=&quot;font-size: 20px;&quot;&gt;Подключение&lt;br&gt;кабелей&lt;/font&gt;" style="text;html=1;strokeColor=none;fillColor=none;align=center;verticalAlign=middle;whiteSpace=wrap;rounded=0;" parent="WIyWlLk6GJQsqaUBKTNV-1" vertex="1">
          <mxGeometry x="-656.25" y="265" width="157.5" height="60" as="geometry" />
        </mxCell>
        <mxCell id="7RdI7eUV66DGFy7NkIfL-29" value="&lt;font style=&quot;font-size: 20px;&quot;&gt;Нажатие&lt;/font&gt;" style="text;html=1;strokeColor=none;fillColor=none;align=center;verticalAlign=middle;whiteSpace=wrap;rounded=0;" parent="WIyWlLk6GJQsqaUBKTNV-1" vertex="1">
          <mxGeometry x="-255" y="-175" width="140" height="60" as="geometry" />
        </mxCell>
        <mxCell id="7RdI7eUV66DGFy7NkIfL-37" value="&lt;font style=&quot;font-size: 72px;&quot;&gt;Внешняя среда&lt;/font&gt;" style="text;html=1;strokeColor=none;fillColor=none;align=center;verticalAlign=middle;whiteSpace=wrap;rounded=0;rotation=-90;" parent="WIyWlLk6GJQsqaUBKTNV-1" vertex="1">
          <mxGeometry x="535.5" y="357.5" width="600" height="105" as="geometry" />
        </mxCell>
        <mxCell id="7RdI7eUV66DGFy7NkIfL-38" value="&lt;font style=&quot;font-size: 72px;&quot;&gt;Внешняя среда&lt;/font&gt;" style="text;html=1;strokeColor=none;fillColor=none;align=center;verticalAlign=middle;whiteSpace=wrap;rounded=0;rotation=0;" parent="WIyWlLk6GJQsqaUBKTNV-1" vertex="1">
          <mxGeometry x="-70.5" y="740" width="600" height="150" as="geometry" />
        </mxCell>
        <mxCell id="7RdI7eUV66DGFy7NkIfL-41" value="" style="rounded=0;whiteSpace=wrap;html=1;" parent="WIyWlLk6GJQsqaUBKTNV-1" vertex="1">
          <mxGeometry x="-270" y="80" width="170" height="150" as="geometry" />
        </mxCell>
        <mxCell id="7RdI7eUV66DGFy7NkIfL-18" value="&lt;font style=&quot;font-size: 25px;&quot;&gt;Кнопка&lt;br&gt;Включения&lt;br&gt;&lt;/font&gt;" style="text;html=1;strokeColor=none;fillColor=none;align=center;verticalAlign=middle;whiteSpace=wrap;rounded=0;" parent="WIyWlLk6GJQsqaUBKTNV-1" vertex="1">
          <mxGeometry x="-245" y="120" width="120" height="70" as="geometry" />
        </mxCell>
        <mxCell id="7RdI7eUV66DGFy7NkIfL-42" value="" style="endArrow=classic;html=1;rounded=0;strokeWidth=4;strokeColor=#007FFF;" parent="WIyWlLk6GJQsqaUBKTNV-1" edge="1">
          <mxGeometry width="50" height="50" relative="1" as="geometry">
            <mxPoint x="-166.25" y="1080" as="sourcePoint" />
            <mxPoint x="-66.25" y="1080" as="targetPoint" />
            <Array as="points">
              <mxPoint x="-106.25" y="1080" />
            </Array>
          </mxGeometry>
        </mxCell>
        <mxCell id="7RdI7eUV66DGFy7NkIfL-44" value="&lt;font style=&quot;font-size: 40px;&quot;&gt;Условные обозначения&lt;/font&gt;" style="text;html=1;strokeColor=none;fillColor=none;align=center;verticalAlign=middle;whiteSpace=wrap;rounded=0;" parent="WIyWlLk6GJQsqaUBKTNV-1" vertex="1">
          <mxGeometry x="-735" y="910" width="610" height="120" as="geometry" />
        </mxCell>
        <mxCell id="7RdI7eUV66DGFy7NkIfL-45" value="" style="endArrow=classic;html=1;rounded=0;strokeWidth=4;strokeColor=#FF0000;" parent="WIyWlLk6GJQsqaUBKTNV-1" edge="1">
          <mxGeometry width="50" height="50" relative="1" as="geometry">
            <mxPoint x="-166.25" y="1180" as="sourcePoint" />
            <mxPoint x="-66.25" y="1180" as="targetPoint" />
            <Array as="points">
              <mxPoint x="-106.25" y="1180" />
            </Array>
          </mxGeometry>
        </mxCell>
        <mxCell id="7RdI7eUV66DGFy7NkIfL-46" value="" style="endArrow=classic;html=1;rounded=0;strokeWidth=4;strokeColor=#000099;" parent="WIyWlLk6GJQsqaUBKTNV-1" edge="1">
          <mxGeometry width="50" height="50" relative="1" as="geometry">
            <mxPoint x="-166.25" y="1280" as="sourcePoint" />
            <mxPoint x="-66.25" y="1280" as="targetPoint" />
            <Array as="points">
              <mxPoint x="-106.25" y="1280" />
            </Array>
          </mxGeometry>
        </mxCell>
        <mxCell id="7RdI7eUV66DGFy7NkIfL-47" value="" style="endArrow=classic;html=1;rounded=0;strokeWidth=4;strokeColor=#000000;" parent="WIyWlLk6GJQsqaUBKTNV-1" edge="1">
          <mxGeometry width="50" height="50" relative="1" as="geometry">
            <mxPoint x="-166.25" y="1380" as="sourcePoint" />
            <mxPoint x="-66.25" y="1380" as="targetPoint" />
            <Array as="points">
              <mxPoint x="-106.25" y="1380" />
            </Array>
          </mxGeometry>
        </mxCell>
        <mxCell id="7RdI7eUV66DGFy7NkIfL-49" value="&lt;font style=&quot;font-size: 20px;&quot;&gt;Передача электропитания&lt;/font&gt;" style="text;html=1;strokeColor=none;fillColor=none;align=center;verticalAlign=middle;whiteSpace=wrap;rounded=0;" parent="WIyWlLk6GJQsqaUBKTNV-1" vertex="1">
          <mxGeometry x="-496.25" y="1040" width="270" height="60" as="geometry" />
        </mxCell>
        <mxCell id="7RdI7eUV66DGFy7NkIfL-50" value="&lt;span style=&quot;font-size: 20px;&quot;&gt;Изменение сопротивления тока&lt;/span&gt;" style="text;html=1;strokeColor=none;fillColor=none;align=center;verticalAlign=middle;whiteSpace=wrap;rounded=0;" parent="WIyWlLk6GJQsqaUBKTNV-1" vertex="1">
          <mxGeometry x="-496.25" y="1150" width="270" height="60" as="geometry" />
        </mxCell>
        <mxCell id="7RdI7eUV66DGFy7NkIfL-51" value="&lt;span style=&quot;font-size: 20px;&quot;&gt;Образование ЭМ поля&lt;/span&gt;" style="text;html=1;strokeColor=none;fillColor=none;align=center;verticalAlign=middle;whiteSpace=wrap;rounded=0;" parent="WIyWlLk6GJQsqaUBKTNV-1" vertex="1">
          <mxGeometry x="-496.25" y="1250" width="270" height="60" as="geometry" />
        </mxCell>
        <mxCell id="7RdI7eUV66DGFy7NkIfL-52" value="&lt;span style=&quot;font-size: 20px;&quot;&gt;Передача колебаний&lt;/span&gt;" style="text;html=1;strokeColor=none;fillColor=none;align=center;verticalAlign=middle;whiteSpace=wrap;rounded=0;" parent="WIyWlLk6GJQsqaUBKTNV-1" vertex="1">
          <mxGeometry x="-496.25" y="1350" width="270" height="60" as="geometry" />
        </mxCell>
        <mxCell id="7RdI7eUV66DGFy7NkIfL-53" value="&lt;span style=&quot;font-size: 20px;&quot;&gt;Защита&lt;/span&gt;" style="text;html=1;strokeColor=none;fillColor=none;align=center;verticalAlign=middle;whiteSpace=wrap;rounded=0;" parent="WIyWlLk6GJQsqaUBKTNV-1" vertex="1">
          <mxGeometry x="88.75" y="1040" width="270" height="60" as="geometry" />
        </mxCell>
        <mxCell id="7RdI7eUV66DGFy7NkIfL-54" value="" style="endArrow=classic;html=1;rounded=0;strokeWidth=4;strokeColor=#994C00;" parent="WIyWlLk6GJQsqaUBKTNV-1" edge="1">
          <mxGeometry width="50" height="50" relative="1" as="geometry">
            <mxPoint x="466.25" y="1069.4099999999999" as="sourcePoint" />
            <mxPoint x="566.25" y="1069.4099999999999" as="targetPoint" />
            <Array as="points">
              <mxPoint x="526.25" y="1069.4099999999999" />
            </Array>
          </mxGeometry>
        </mxCell>
        <mxCell id="7RdI7eUV66DGFy7NkIfL-55" value="&lt;span style=&quot;font-size: 20px;&quot;&gt;Подача сигнала&lt;br&gt;&lt;/span&gt;" style="text;html=1;strokeColor=none;fillColor=none;align=center;verticalAlign=middle;whiteSpace=wrap;rounded=0;" parent="WIyWlLk6GJQsqaUBKTNV-1" vertex="1">
          <mxGeometry x="96.25" y="1150" width="270" height="60" as="geometry" />
        </mxCell>
        <mxCell id="7RdI7eUV66DGFy7NkIfL-56" value="&lt;font style=&quot;font-size: 20px;&quot;&gt;Амортизация колебаний&lt;/font&gt;&lt;span style=&quot;font-size: 20px;&quot;&gt;&lt;br&gt;&lt;/span&gt;" style="text;html=1;strokeColor=none;fillColor=none;align=center;verticalAlign=middle;whiteSpace=wrap;rounded=0;" parent="WIyWlLk6GJQsqaUBKTNV-1" vertex="1">
          <mxGeometry x="88.75" y="1250" width="270" height="60" as="geometry" />
        </mxCell>
        <mxCell id="7RdI7eUV66DGFy7NkIfL-57" value="&lt;font style=&quot;font-size: 20px;&quot;&gt;Внешнее воздействие&lt;/font&gt;&lt;span style=&quot;font-size: 20px;&quot;&gt;&lt;br&gt;&lt;/span&gt;" style="text;html=1;strokeColor=none;fillColor=none;align=center;verticalAlign=middle;whiteSpace=wrap;rounded=0;" parent="WIyWlLk6GJQsqaUBKTNV-1" vertex="1">
          <mxGeometry x="88.75" y="1350" width="270" height="60" as="geometry" />
        </mxCell>
        <mxCell id="7RdI7eUV66DGFy7NkIfL-58" value="" style="endArrow=classic;html=1;rounded=0;strokeWidth=4;strokeColor=#00CC00;" parent="WIyWlLk6GJQsqaUBKTNV-1" edge="1">
          <mxGeometry width="50" height="50" relative="1" as="geometry">
            <mxPoint x="466.25" y="1179.3799999999999" as="sourcePoint" />
            <mxPoint x="566.25" y="1179.3799999999999" as="targetPoint" />
            <Array as="points">
              <mxPoint x="526.25" y="1179.3799999999999" />
            </Array>
          </mxGeometry>
        </mxCell>
        <mxCell id="7RdI7eUV66DGFy7NkIfL-59" value="" style="endArrow=classic;html=1;rounded=0;strokeWidth=4;strokeColor=#FFC812;" parent="WIyWlLk6GJQsqaUBKTNV-1" edge="1">
          <mxGeometry width="50" height="50" relative="1" as="geometry">
            <mxPoint x="466.25" y="1279.3799999999999" as="sourcePoint" />
            <mxPoint x="566.25" y="1279.3799999999999" as="targetPoint" />
            <Array as="points">
              <mxPoint x="526.25" y="1279.3799999999999" />
            </Array>
          </mxGeometry>
        </mxCell>
        <mxCell id="7RdI7eUV66DGFy7NkIfL-60" value="" style="endArrow=classic;html=1;rounded=0;strokeWidth=4;strokeColor=#808080;" parent="WIyWlLk6GJQsqaUBKTNV-1" edge="1">
          <mxGeometry width="50" height="50" relative="1" as="geometry">
            <mxPoint x="466.25" y="1379.3799999999999" as="sourcePoint" />
            <mxPoint x="566.25" y="1379.3799999999999" as="targetPoint" />
            <Array as="points">
              <mxPoint x="526.25" y="1379.3799999999999" />
            </Array>
          </mxGeometry>
        </mxCell>
        <mxCell id="7RdI7eUV66DGFy7NkIfL-62" value="" style="endArrow=classic;html=1;rounded=0;strokeWidth=4;strokeColor=#007FFF;entryX=0.75;entryY=1;entryDx=0;entryDy=0;exitX=0.75;exitY=1;exitDx=0;exitDy=0;" parent="WIyWlLk6GJQsqaUBKTNV-1" source="7RdI7eUV66DGFy7NkIfL-20" target="7RdI7eUV66DGFy7NkIfL-11" edge="1">
          <mxGeometry width="50" height="50" relative="1" as="geometry">
            <mxPoint x="24" y="630.0000000000005" as="sourcePoint" />
            <mxPoint x="646" y="560.0000000000005" as="targetPoint" />
            <Array as="points">
              <mxPoint x="23" y="640" />
              <mxPoint x="151.5" y="640" />
              <mxPoint x="401.5" y="640" />
              <mxPoint x="646.5" y="640" />
            </Array>
          </mxGeometry>
        </mxCell>
        <mxCell id="7RdI7eUV66DGFy7NkIfL-64" value="" style="endArrow=classic;startArrow=classic;html=1;rounded=0;strokeColor=#000099;strokeWidth=3;entryX=0.007;entryY=0.467;entryDx=0;entryDy=0;entryPerimeter=0;exitX=1.004;exitY=0.466;exitDx=0;exitDy=0;exitPerimeter=0;" parent="WIyWlLk6GJQsqaUBKTNV-1" source="7RdI7eUV66DGFy7NkIfL-12" target="7RdI7eUV66DGFy7NkIfL-11" edge="1">
          <mxGeometry width="50" height="50" relative="1" as="geometry">
            <mxPoint x="425" y="500" as="sourcePoint" />
            <mxPoint x="475" y="450" as="targetPoint" />
            <Array as="points" />
          </mxGeometry>
        </mxCell>
        <mxCell id="7RdI7eUV66DGFy7NkIfL-65" value="" style="endArrow=classic;html=1;rounded=0;strokeWidth=3;exitX=0;exitY=0.25;exitDx=0;exitDy=0;entryX=0.997;entryY=0.679;entryDx=0;entryDy=0;entryPerimeter=0;" parent="WIyWlLk6GJQsqaUBKTNV-1" source="7RdI7eUV66DGFy7NkIfL-11" target="7RdI7eUV66DGFy7NkIfL-9" edge="1">
          <mxGeometry width="50" height="50" relative="1" as="geometry">
            <mxPoint x="479.5" y="420" as="sourcePoint" />
            <mxPoint x="529.5" y="370" as="targetPoint" />
            <Array as="points">
              <mxPoint x="450" y="453" />
              <mxPoint x="450" y="320" />
            </Array>
          </mxGeometry>
        </mxCell>
        <mxCell id="7RdI7eUV66DGFy7NkIfL-66" value="" style="endArrow=classic;html=1;rounded=0;strokeWidth=3;" parent="WIyWlLk6GJQsqaUBKTNV-1" edge="1">
          <mxGeometry width="50" height="50" relative="1" as="geometry">
            <mxPoint x="247" y="230" as="sourcePoint" />
            <mxPoint x="245" y="-40" as="targetPoint" />
          </mxGeometry>
        </mxCell>
        <mxCell id="7RdI7eUV66DGFy7NkIfL-67" value="" style="endArrow=classic;html=1;rounded=0;strokeWidth=4;strokeColor=#FF0000;exitX=0.5;exitY=1;exitDx=0;exitDy=0;entryX=0.25;entryY=1;entryDx=0;entryDy=0;" parent="WIyWlLk6GJQsqaUBKTNV-1" source="7RdI7eUV66DGFy7NkIfL-19" target="7RdI7eUV66DGFy7NkIfL-11" edge="1">
          <mxGeometry width="50" height="50" relative="1" as="geometry">
            <mxPoint x="60" y="304.47" as="sourcePoint" />
            <mxPoint x="160" y="304.47" as="targetPoint" />
            <Array as="points">
              <mxPoint x="140" y="390" />
              <mxPoint x="140" y="600" />
              <mxPoint x="527" y="600" />
            </Array>
          </mxGeometry>
        </mxCell>
        <mxCell id="7RdI7eUV66DGFy7NkIfL-68" value="" style="endArrow=classic;html=1;rounded=0;strokeWidth=4;strokeColor=#994C00;entryX=0.75;entryY=1;entryDx=0;entryDy=0;" parent="WIyWlLk6GJQsqaUBKTNV-1" target="7RdI7eUV66DGFy7NkIfL-7" edge="1">
          <mxGeometry width="50" height="50" relative="1" as="geometry">
            <mxPoint x="590" y="660" as="sourcePoint" />
            <mxPoint x="690" y="639.9999999999998" as="targetPoint" />
            <Array as="points" />
          </mxGeometry>
        </mxCell>
        <mxCell id="7RdI7eUV66DGFy7NkIfL-69" value="" style="endArrow=classic;html=1;rounded=0;strokeWidth=4;strokeColor=#994C00;exitX=1;exitY=0.5;exitDx=0;exitDy=0;entryX=1.003;entryY=0.149;entryDx=0;entryDy=0;entryPerimeter=0;" parent="WIyWlLk6GJQsqaUBKTNV-1" source="7RdI7eUV66DGFy7NkIfL-5" target="7RdI7eUV66DGFy7NkIfL-7" edge="1">
          <mxGeometry width="50" height="50" relative="1" as="geometry">
            <mxPoint x="616" y="154.1699999999998" as="sourcePoint" />
            <mxPoint x="716" y="154.1699999999998" as="targetPoint" />
            <Array as="points">
              <mxPoint x="790" y="110" />
              <mxPoint x="790" y="230" />
            </Array>
          </mxGeometry>
        </mxCell>
        <mxCell id="7RdI7eUV66DGFy7NkIfL-70" value="" style="endArrow=classic;html=1;rounded=0;strokeWidth=4;strokeColor=#00CC00;exitX=0.5;exitY=1;exitDx=0;exitDy=0;entryX=-0.003;entryY=0.436;entryDx=0;entryDy=0;entryPerimeter=0;" parent="WIyWlLk6GJQsqaUBKTNV-1" source="7RdI7eUV66DGFy7NkIfL-41" target="7RdI7eUV66DGFy7NkIfL-7" edge="1">
          <mxGeometry width="50" height="50" relative="1" as="geometry">
            <mxPoint x="-160" y="349.9999999999999" as="sourcePoint" />
            <mxPoint x="-60" y="349.9999999999999" as="targetPoint" />
            <Array as="points">
              <mxPoint x="-100" y="344" />
            </Array>
          </mxGeometry>
        </mxCell>
        <mxCell id="7RdI7eUV66DGFy7NkIfL-71" value="" style="endArrow=classic;html=1;rounded=0;strokeWidth=4;strokeColor=#FFC812;entryX=1;entryY=0.25;entryDx=0;entryDy=0;exitX=0;exitY=0.25;exitDx=0;exitDy=0;" parent="WIyWlLk6GJQsqaUBKTNV-1" source="7RdI7eUV66DGFy7NkIfL-10" target="7RdI7eUV66DGFy7NkIfL-9" edge="1">
          <mxGeometry width="50" height="50" relative="1" as="geometry">
            <mxPoint x="470" y="280" as="sourcePoint" />
            <mxPoint x="530" y="279.9999999999999" as="targetPoint" />
            <Array as="points" />
          </mxGeometry>
        </mxCell>
        <mxCell id="7RdI7eUV66DGFy7NkIfL-73" value="" style="endArrow=classic;html=1;rounded=0;strokeWidth=4;strokeColor=#808080;entryX=0.25;entryY=0;entryDx=0;entryDy=0;" parent="WIyWlLk6GJQsqaUBKTNV-1" target="7RdI7eUV66DGFy7NkIfL-20" edge="1">
          <mxGeometry width="50" height="50" relative="1" as="geometry">
            <mxPoint x="-475" y="294.3699999999999" as="sourcePoint" />
            <mxPoint x="-375" y="294.3699999999999" as="targetPoint" />
            <Array as="points">
              <mxPoint x="-415" y="294.3699999999999" />
            </Array>
          </mxGeometry>
        </mxCell>
        <mxCell id="7RdI7eUV66DGFy7NkIfL-74" value="" style="endArrow=classic;html=1;rounded=0;strokeWidth=4;strokeColor=#808080;entryX=0.5;entryY=0;entryDx=0;entryDy=0;exitX=0.5;exitY=1;exitDx=0;exitDy=0;" parent="WIyWlLk6GJQsqaUBKTNV-1" source="7RdI7eUV66DGFy7NkIfL-26" target="7RdI7eUV66DGFy7NkIfL-41" edge="1">
          <mxGeometry width="50" height="50" relative="1" as="geometry">
            <mxPoint x="-390" y="-110.00000000000011" as="sourcePoint" />
            <mxPoint x="-87" y="65.63" as="targetPoint" />
            <Array as="points" />
          </mxGeometry>
        </mxCell>
        <mxCell id="GiRmid576xuVIGdsg9qq-0" value="" style="rounded=1;whiteSpace=wrap;html=1;" vertex="1" parent="WIyWlLk6GJQsqaUBKTNV-1">
          <mxGeometry x="150" y="-140" width="190" height="95" as="geometry" />
        </mxCell>
        <mxCell id="GiRmid576xuVIGdsg9qq-1" value="&lt;font style=&quot;font-size: 20px;&quot;&gt;Звук&lt;/font&gt;" style="text;html=1;strokeColor=none;fillColor=none;align=center;verticalAlign=middle;whiteSpace=wrap;rounded=0;" vertex="1" parent="WIyWlLk6GJQsqaUBKTNV-1">
          <mxGeometry x="172.5" y="-123.75" width="145" height="62.5" as="geometry" />
        </mxCell>
        <mxCell id="GiRmid576xuVIGdsg9qq-2" value="&lt;font style=&quot;font-size: 20px;&quot;&gt;Входы&lt;/font&gt;" style="text;html=1;strokeColor=none;fillColor=none;align=center;verticalAlign=middle;whiteSpace=wrap;rounded=0;" vertex="1" parent="WIyWlLk6GJQsqaUBKTNV-1">
          <mxGeometry x="810" y="1055" width="60" height="30" as="geometry" />
        </mxCell>
        <mxCell id="GiRmid576xuVIGdsg9qq-3" value="&lt;span style=&quot;font-size: 20px;&quot;&gt;Выходы&lt;/span&gt;" style="text;html=1;strokeColor=none;fillColor=none;align=center;verticalAlign=middle;whiteSpace=wrap;rounded=0;" vertex="1" parent="WIyWlLk6GJQsqaUBKTNV-1">
          <mxGeometry x="810" y="1150" width="60" height="30" as="geometry" />
        </mxCell>
        <mxCell id="GiRmid576xuVIGdsg9qq-4" value="" style="ellipse;whiteSpace=wrap;html=1;" vertex="1" parent="WIyWlLk6GJQsqaUBKTNV-1">
          <mxGeometry x="930" y="1040" width="110" height="60" as="geometry" />
        </mxCell>
        <mxCell id="GiRmid576xuVIGdsg9qq-5" value="" style="rounded=1;whiteSpace=wrap;html=1;" vertex="1" parent="WIyWlLk6GJQsqaUBKTNV-1">
          <mxGeometry x="935" y="1142.5" width="105" height="45" as="geometry" />
        </mxCell>
      </root>
    </mxGraphModel>
  </diagram>
</mxfile>
